<svg width="1688" height="472" viewBox="0 0 1688 472" fill="none" xmlns="http://www.w3.org/2000/svg">
<path d="M539.018 118.346V141.519H579.442V192.242C568.371 198.422 551.892 201.769 534.641 201.769C494.475 201.769 463.835 170.357 463.835 129.16C463.835 89.2512 490.87 56.5516 532.581 56.5516C550.862 56.5516 568.113 61.4436 583.047 75.8624L600.555 57.0665C586.394 42.3903 566.053 33.3786 532.581 33.3786C476.966 33.3786 437.572 75.09 437.572 129.16C437.572 180.913 473.362 224.942 535.156 224.942C557.299 224.942 586.394 219.02 604.16 208.206V118.346H539.018Z" fill="white"/>
<path d="M759.244 98.2629H736.071V161.087C736.071 189.41 721.395 201.769 702.084 201.769C687.408 201.769 674.276 193.272 674.276 170.357V98.2629H651.103V176.794C651.103 209.236 671.702 223.397 695.39 223.397C714.185 223.397 729.634 214.385 735.556 201.511H736.071V220.307H759.244V98.2629Z" fill="white"/>
<path d="M803.701 220.307H826.874V98.2629H803.701V220.307ZM798.294 54.4918C798.294 63.7609 806.018 71.4853 815.287 71.4853C824.557 71.4853 832.281 63.7609 832.281 54.4918C832.281 45.2226 824.557 37.4983 815.287 37.4983C806.018 37.4983 798.294 45.2226 798.294 54.4918Z" fill="white"/>
<path d="M873.28 220.307H896.453V25.6543H873.28V220.307Z" fill="white"/>
<path d="M941.057 220.307H964.23V157.483C964.23 129.16 978.906 116.801 998.217 116.801C1012.89 116.801 1026.02 125.298 1026.02 148.214V220.307H1049.2V141.777C1049.2 109.334 1028.6 95.1732 1004.91 95.1732C986.116 95.1732 970.667 104.185 964.745 117.059H964.23V25.6543H941.057V220.307Z" fill="white"/>
<path d="M1207.2 167.782V159.543C1207.2 128.13 1190.72 95.1732 1147.72 95.1732C1111.16 95.1732 1084.64 122.723 1084.64 159.285C1084.64 195.589 1108.85 223.397 1147.47 223.397C1170.9 223.397 1188.66 215.158 1201.54 198.422L1184.03 185.033C1175.02 196.104 1164.72 203.314 1150.56 203.314C1129.19 203.314 1109.36 189.152 1109.36 167.782H1207.2ZM1109.36 149.243C1109.36 133.022 1124.29 113.712 1147.21 113.712C1170.64 113.712 1181.97 128.903 1182.48 149.243H1109.36Z" fill="white"/>
<path d="M1242.65 220.307H1265.82V159.028C1265.82 132.25 1278.18 119.891 1300.84 119.891C1304.44 119.891 1308.3 120.663 1312.17 121.693L1313.2 96.718C1310.11 95.6881 1306.5 95.1732 1302.9 95.1732C1287.71 95.1732 1272.26 104.185 1266.34 117.059H1265.82V98.2629H1242.65V220.307Z" fill="white"/>
<path d="M1345.67 220.307H1368.84V156.968C1368.84 129.418 1383.78 116.801 1400.51 116.801C1422.91 116.801 1426.26 133.28 1426.26 156.453V220.307H1449.43V153.621C1449.43 131.992 1458.19 116.801 1480.59 116.801C1502.99 116.801 1506.85 133.795 1506.85 152.333V220.307H1530.02V149.243C1530.02 121.951 1521.27 95.1732 1483.68 95.1732C1469 95.1732 1453.04 102.898 1445.05 117.831C1437.33 102.898 1424.97 95.1732 1406.95 95.1732C1385.06 95.1732 1370.13 110.107 1367.81 117.316H1367.3V98.2629H1345.67V220.307Z" fill="white"/>
<path d="M1688 167.782V159.543C1688 128.13 1671.52 95.1732 1628.52 95.1732C1591.96 95.1732 1565.44 122.723 1565.44 159.285C1565.44 195.589 1589.64 223.397 1628.27 223.397C1651.7 223.397 1669.46 215.158 1682.34 198.422L1664.83 185.033C1655.82 196.104 1645.52 203.314 1631.36 203.314C1609.99 203.314 1590.16 189.152 1590.16 167.782H1688ZM1590.16 149.243C1590.16 133.022 1605.09 113.712 1628.01 113.712C1651.44 113.712 1662.77 128.903 1663.28 149.243H1590.16Z" fill="white"/>
<path fill-rule="evenodd" clip-rule="evenodd" d="M403.051 468.843H328.383V286.549H396.357C428.284 286.549 463.043 293.243 463.043 332.895C463.043 353.235 450.427 367.139 431.631 373.061V373.576C455.577 376.666 471.54 394.432 471.54 418.12C471.54 456.226 435.493 468.843 403.051 468.843ZM395.842 320.536H368.549V359.415H397.644C410.003 359.415 422.877 354.265 422.877 339.589C422.877 324.398 408.458 320.536 395.842 320.536ZM398.932 393.402H368.549V434.856H404.596C417.212 434.856 431.374 429.449 431.374 413.485C431.374 396.234 412.063 393.402 398.932 393.402Z" fill="white"/>
<path fill-rule="evenodd" clip-rule="evenodd" d="M612.235 468.843H576.704V453.137H576.189C567.692 466.526 552.243 471.933 536.537 471.933C513.107 471.933 491.994 458.544 491.994 433.311C491.994 390.055 544.519 389.282 576.704 389.282C576.704 375.636 565.375 366.882 551.986 366.882C539.369 366.882 528.813 372.546 520.574 381.815L499.975 360.702C514.137 347.314 534.735 340.619 555.076 340.619C600.134 340.619 612.235 363.535 612.235 405.246V468.843ZM547.351 445.67C562.542 445.67 576.704 437.688 576.704 422.239V414H567.177C555.333 414 529.07 415.03 529.07 432.024C529.07 441.293 538.854 445.67 547.351 445.67Z" fill="white"/>
<path d="M683.327 468.843H644.706V274.19H683.327V468.843Z" fill="white"/>
<path fill-rule="evenodd" clip-rule="evenodd" d="M811.491 274.19H850.112V468.843H814.581V452.364H814.066C808.144 461.376 793.21 471.933 775.701 471.933C738.625 471.933 714.164 445.155 714.164 407.306C714.164 372.546 735.792 340.619 771.324 340.619C787.288 340.619 802.222 344.996 810.976 357.098H811.491V274.19ZM783.683 437.946C802.994 437.946 814.581 425.072 814.581 406.276C814.581 387.48 802.994 374.606 783.683 374.606C764.372 374.606 752.786 387.48 752.786 406.276C752.786 425.072 764.372 437.946 783.683 437.946Z" fill="white"/>
<path d="M908.53 326.715C896.171 326.715 886.129 316.674 886.129 304.315C886.129 291.956 896.171 281.914 908.53 281.914C920.888 281.914 930.93 291.956 930.93 304.315C930.93 316.674 920.888 326.715 908.53 326.715Z" fill="white"/>
<path d="M1001.93 468.843H963.312V343.709H1000.39V360.702H1000.9C1006.05 350.918 1018.67 340.619 1037.47 340.619C1076.6 340.619 1083.81 366.367 1083.81 399.839V468.843H1045.19V407.563C1045.19 393.144 1044.93 374.606 1025.11 374.606C1005.02 374.606 1001.93 390.312 1001.93 406.533V468.843Z" fill="white"/>
<path d="M927.84 468.843H889.219V343.709H927.84V468.843Z" fill="white"/>
<path d="M1158.02 468.843H1119.4V343.709H1158.02V468.843Z" fill="white"/>
<path d="M1138.71 326.715C1126.35 326.715 1116.31 316.674 1116.31 304.315C1116.31 291.956 1126.35 281.914 1138.71 281.914C1151.07 281.914 1161.11 291.956 1161.11 304.315C1161.11 316.674 1151.07 326.715 1138.71 326.715Z" fill="white"/>
<path d="M369.941 0L99.9883 467.572H154.78L424.733 0H369.941Z" fill="#1DB691"/>
<path d="M116.686 265.965L0.289062 467.571H55.0806L171.478 265.965H116.686Z" fill="#1A86EA"/>
</svg>
