<svg width="1688" height="472" viewBox="0 0 1688 472" fill="none" xmlns="http://www.w3.org/2000/svg">
<path d="M538.727 118.346V141.519H579.151V192.242C568.08 198.422 551.601 201.769 534.35 201.769C494.184 201.769 463.544 170.357 463.544 129.16C463.544 89.2512 490.579 56.5516 532.29 56.5516C550.571 56.5516 567.822 61.4436 582.756 75.8624L600.264 57.0665C586.103 42.3903 565.762 33.3786 532.29 33.3786C476.675 33.3786 437.281 75.09 437.281 129.16C437.281 180.913 473.071 224.942 534.865 224.942C557.008 224.942 586.103 219.02 603.869 208.206V118.346H538.727Z" fill="black"/>
<path d="M758.953 98.2629H735.78V161.087C735.78 189.41 721.104 201.769 701.793 201.769C687.117 201.769 673.985 193.272 673.985 170.357V98.2629H650.812V176.794C650.812 209.236 671.411 223.397 695.099 223.397C713.894 223.397 729.343 214.385 735.265 201.511H735.78V220.307H758.953V98.2629Z" fill="black"/>
<path d="M803.41 220.307H826.583V98.2629H803.41V220.307ZM798.003 54.4918C798.003 63.7609 805.727 71.4853 814.996 71.4853C824.266 71.4853 831.99 63.7609 831.99 54.4918C831.99 45.2226 824.266 37.4983 814.996 37.4983C805.727 37.4983 798.003 45.2226 798.003 54.4918Z" fill="black"/>
<path d="M872.989 220.307H896.162V25.6543H872.989V220.307Z" fill="black"/>
<path d="M940.766 220.307H963.939V157.483C963.939 129.16 978.615 116.801 997.926 116.801C1012.6 116.801 1025.73 125.298 1025.73 148.214V220.307H1048.91V141.777C1048.91 109.334 1028.31 95.1732 1004.62 95.1732C985.825 95.1732 970.376 104.185 964.454 117.059H963.939V25.6543H940.766V220.307Z" fill="black"/>
<path d="M1206.91 167.782V159.543C1206.91 128.13 1190.43 95.1732 1147.43 95.1732C1110.87 95.1732 1084.35 122.723 1084.35 159.285C1084.35 195.589 1108.55 223.397 1147.18 223.397C1170.61 223.397 1188.37 215.158 1201.25 198.422L1183.74 185.033C1174.73 196.104 1164.43 203.314 1150.27 203.314C1128.9 203.314 1109.07 189.152 1109.07 167.782H1206.91ZM1109.07 149.243C1109.07 133.022 1124 113.712 1146.92 113.712C1170.35 113.712 1181.68 128.903 1182.19 149.243H1109.07Z" fill="black"/>
<path d="M1242.36 220.307H1265.53V159.028C1265.53 132.25 1277.89 119.891 1300.55 119.891C1304.15 119.891 1308.01 120.663 1311.88 121.693L1312.91 96.718C1309.82 95.6881 1306.21 95.1732 1302.61 95.1732C1287.42 95.1732 1271.97 104.185 1266.04 117.059H1265.53V98.2629H1242.36V220.307Z" fill="black"/>
<path d="M1345.38 220.307H1368.55V156.968C1368.55 129.418 1383.48 116.801 1400.22 116.801C1422.62 116.801 1425.97 133.28 1425.97 156.453V220.307H1449.14V153.621C1449.14 131.992 1457.9 116.801 1480.3 116.801C1502.7 116.801 1506.56 133.795 1506.56 152.333V220.307H1529.73V149.243C1529.73 121.951 1520.98 95.1732 1483.39 95.1732C1468.71 95.1732 1452.75 102.898 1444.76 117.831C1437.04 102.898 1424.68 95.1732 1406.66 95.1732C1384.77 95.1732 1369.84 110.107 1367.52 117.316H1367.01V98.2629H1345.38V220.307Z" fill="black"/>
<path d="M1687.71 167.782V159.543C1687.71 128.13 1671.23 95.1732 1628.23 95.1732C1591.67 95.1732 1565.15 122.723 1565.15 159.285C1565.15 195.589 1589.35 223.397 1627.98 223.397C1651.41 223.397 1669.17 215.158 1682.05 198.422L1664.54 185.033C1655.53 196.104 1645.23 203.314 1631.06 203.314C1609.69 203.314 1589.87 189.152 1589.87 167.782H1687.71ZM1589.87 149.243C1589.87 133.022 1604.8 113.712 1627.72 113.712C1651.15 113.712 1662.48 128.903 1662.99 149.243H1589.87Z" fill="black"/>
<path fill-rule="evenodd" clip-rule="evenodd" d="M402.76 468.843H328.092V286.549H396.066C427.993 286.549 462.752 293.243 462.752 332.895C462.752 353.235 450.136 367.139 431.34 373.061V373.576C455.286 376.666 471.249 394.432 471.249 418.12C471.249 456.226 435.202 468.843 402.76 468.843ZM395.551 320.536H368.258V359.415H397.353C409.712 359.415 422.586 354.265 422.586 339.589C422.586 324.398 408.167 320.536 395.551 320.536ZM398.641 393.402H368.258V434.856H404.305C416.921 434.856 431.083 429.449 431.083 413.485C431.083 396.234 411.772 393.402 398.641 393.402Z" fill="black"/>
<path fill-rule="evenodd" clip-rule="evenodd" d="M611.944 468.843H576.413V453.137H575.898C567.401 466.526 551.952 471.933 536.246 471.933C512.816 471.933 491.703 458.544 491.703 433.311C491.703 390.055 544.228 389.282 576.413 389.282C576.413 375.636 565.084 366.882 551.695 366.882C539.078 366.882 528.522 372.546 520.283 381.815L499.684 360.702C513.846 347.314 534.444 340.619 554.785 340.619C599.843 340.619 611.944 363.535 611.944 405.246V468.843ZM547.06 445.67C562.251 445.67 576.413 437.688 576.413 422.239V414H566.886C555.042 414 528.779 415.03 528.779 432.024C528.779 441.293 538.563 445.67 547.06 445.67Z" fill="black"/>
<path d="M683.036 468.843H644.415V274.19H683.036V468.843Z" fill="black"/>
<path fill-rule="evenodd" clip-rule="evenodd" d="M811.2 274.19H849.821V468.843H814.289V452.364H813.775C807.853 461.376 792.919 471.933 775.41 471.933C738.334 471.933 713.873 445.155 713.873 407.306C713.873 372.546 735.501 340.619 771.033 340.619C786.997 340.619 801.931 344.996 810.685 357.098H811.2V274.19ZM783.392 437.946C802.703 437.946 814.289 425.072 814.289 406.276C814.289 387.48 802.703 374.606 783.392 374.606C764.081 374.606 752.495 387.48 752.495 406.276C752.495 425.072 764.081 437.946 783.392 437.946Z" fill="black"/>
<path d="M908.239 326.715C895.88 326.715 885.838 316.674 885.838 304.315C885.838 291.956 895.88 281.914 908.239 281.914C920.597 281.914 930.639 291.956 930.639 304.315C930.639 316.674 920.597 326.715 908.239 326.715Z" fill="black"/>
<path d="M1001.64 468.843H963.021V343.709H1000.1V360.702H1000.61C1005.76 350.918 1018.38 340.619 1037.17 340.619C1076.31 340.619 1083.52 366.367 1083.52 399.839V468.843H1044.9V407.563C1044.9 393.144 1044.64 374.606 1024.82 374.606C1004.73 374.606 1001.64 390.312 1001.64 406.533V468.843Z" fill="black"/>
<path d="M927.549 468.843H888.928V343.709H927.549V468.843Z" fill="black"/>
<path d="M1157.73 468.843H1119.11V343.709H1157.73V468.843Z" fill="black"/>
<path d="M1138.42 326.715C1126.06 326.715 1116.02 316.674 1116.02 304.315C1116.02 291.956 1126.06 281.914 1138.42 281.914C1150.78 281.914 1160.82 291.956 1160.82 304.315C1160.82 316.674 1150.78 326.715 1138.42 326.715Z" fill="black"/>
<path d="M369.652 0L99.6992 467.572H154.491L424.443 0H369.652Z" fill="#1DB691"/>
<path d="M116.397 265.965L0 467.571H54.7916L171.188 265.965H116.397Z" fill="#1A86EA"/>
</svg>
